<svg width="47" height="48" viewBox="0 0 47 48" fill="none" xmlns="http://www.w3.org/2000/svg">
<g clip-path="url(#clip0_1_183)">
<ellipse cx="16.0175" cy="24" rx="15.4495" ry="16" fill="#98C3E8"/>
<path d="M45.9165 24C45.9165 32.3176 39.4146 39 31.467 39C23.5195 39 17.0175 32.3176 17.0175 24C17.0175 15.6824 23.5195 9 31.467 9C39.4146 9 45.9165 15.6824 45.9165 24Z" fill="white" stroke="#316099" stroke-width="2"/>
<path d="M31.5634 29.7383H27.1298L26.2118 33H24.9032L29.0048 18.9961H29.6688L33.7899 33H32.4911L31.5634 29.7383ZM27.4716 28.5371H31.2313L29.3856 22.082L29.3466 21.5645L29.3075 22.082L27.4716 28.5371Z" fill="#316099"/>
</g>
<defs>
<clipPath id="clip0_1_183">
<rect width="46.3485" height="48" fill="white" transform="matrix(1 0 0 -1 0.568054 48)"/>
</clipPath>
</defs>
</svg>
