<svg width="47" height="48" viewBox="0 0 47 48" fill="none" xmlns="http://www.w3.org/2000/svg">
<g clip-path="url(#clip0_1_223)">
<ellipse cx="15.4495" cy="24" rx="15.4495" ry="16" fill="#316099"/>
<path d="M45.3484 24C45.3484 32.3176 38.8465 39 30.899 39C22.9514 39 16.4495 32.3176 16.4495 24C16.4495 15.6824 22.9514 9 30.899 9C38.8465 9 45.3484 15.6824 45.3484 24Z" fill="white" stroke="#316099" stroke-width="2"/>
<path d="M30.9953 29.7383H26.5617L25.6437 33H24.3351L28.4367 18.9961H29.1008L33.2219 33H31.923L30.9953 29.7383ZM26.9035 28.5371H30.6633L28.8176 22.082L28.7785 21.5645L28.7394 22.082L26.9035 28.5371Z" fill="#316099"/>
</g>
<defs>
<clipPath id="clip0_1_223">
<rect width="46.3485" height="48" fill="white" transform="matrix(1 0 0 -1 0 48)"/>
</clipPath>
</defs>
</svg>
